<?xml version="1.0" encoding="UTF-8"?> <svg xmlns="http://www.w3.org/2000/svg" xmlns:xlink="http://www.w3.org/1999/xlink" id="Camada_1" data-name="Camada 1" viewBox="0 0 1173.54 513.31"><defs><style> .cls-1 { fill: none; } .cls-1, .cls-2, .cls-3, .cls-4, .cls-5 { stroke-width: 0px; } .cls-6 { clip-path: url(#clippath); } .cls-2, .cls-3 { fill-rule: evenodd; } .cls-2, .cls-4 { fill: #cda176; } .cls-3 { fill: #005384; } .cls-5 { fill: #01498e; } </style><clipPath id="clippath"><rect class="cls-1" y="0" width="1173.54" height="513.3"></rect></clipPath></defs><path class="cls-4" d="M.16,513.3h1172.06v-18.54H.16v18.54ZM.16,310.2h1172.06v-18.54H.16v18.54Z"></path><g class="cls-6"><path class="cls-3" d="M952.8,10.41h24.7v25.49c0,10.29-1.57,17.08-4.75,20.37-3.3,3.43-9.23,5.43-17.8,5.93-.9-.28-2.29-.39-4.15-.39v-11.66c3.96,0,6.88-.89,8.81-2.66,1.9-1.79,2.8-5.24,2.66-10.38h-9.51V10.41h.02ZM905.7,63.81c3.16,10.91,4.71,21.69,4.71,32.23,0,16.57-2.65,33.89-7.97,51.94-10.04,34.18-26.54,60.9-49.5,80.21-15.09,12.77-32.33,19.16-51.78,19.16-6.79,0-12.93-.69-18.41-2.09-5.5-1.37-13.35-4.24-23.58-8.62-18.33,7.46-35.36,11.21-51.08,11.21-7.72,0-14.23-.92-19.53-2.73-3.25-1.07-6-2.93-8.23-5.52-2.26-2.64-3.36-5.3-3.36-7.95,0-5.07,2.78-9.1,8.37-12.05,5.61-3.01,13.14-4.49,22.62-4.49,14.9,0,31.96,4.99,51.22,15.03,12.58-8.54,24.36-19.31,35.43-32.29,6.91-8.18,12.51-15.32,16.82-21.56,4.32-6.23,15.44-23.15,33.31-50.75,13.92-21.26,32.21-42.88,54.82-64.85-5.14-11.98-11-21.16-17.61-27.6-13.58-13.47-31.87-20.19-54.84-20.19-30.22,0-55.83,10.24-76.77,30.71-10.4,10.11-18.54,21.34-24.4,33.65-5.4,11.27-8.11,22.53-8.11,33.8s3.55,20.44,10.61,27.41c6.67,6.67,15.9,10.04,27.64,10.04,16.18,0,31.73-6.28,46.63-18.82,20.26-17.13,34.26-41.34,42.02-72.61l3.17,1.03c-3.08,20.14-9.62,37.89-19.65,53.3-10.24,15.64-22.91,27.3-37.99,34.86-10.77,5.42-21.97,8.13-33.51,8.13-15.26,0-26.93-5.13-35.02-15.37-7.19-9.06-10.76-20.19-10.76-33.3,0-16.78,4.9-33.21,14.66-49.34,10.04-16.43,23.33-29.11,39.83-38.04,16.55-8.92,34.95-13.37,55.23-13.37,26.97,0,48.27,7.95,63.92,23.79,6.51,6.59,12.67,15.95,18.54,28.14,13.04-11.51,25.41-20.53,37.13-27.07l1.14,4.29c-10.83,6.79-22.71,16.68-35.72,29.67M765.73,233.23c11.73,5.86,23.58,8.78,35.58,8.78,18.21,0,34.97-6.63,50.21-19.83,21.39-18.42,36.94-43.6,46.59-75.58,5.39-17.94,8.11-34.58,8.11-49.87,0-9.67-1.37-19.5-4.03-29.51-7.65,8.98-14.53,18.1-20.72,27.35-6.19,9.26-15.05,23.79-26.58,43.59-11.66,20-21.4,34.97-29.26,44.91-7.85,9.94-17.54,19.65-29.08,29.06-6.3,5.09-16.59,12.12-30.82,21.09M753.01,233.05c-17.21-8.18-32.4-12.24-45.61-12.24-7.19,0-12.99,1.03-17.43,3.09-4.45,2.06-6.72,4.72-6.72,7.94s2.36,5.66,7.11,7.7c4.76,1.99,10.76,3.02,18.01,3.02,14.32,0,29.2-3.18,44.64-9.51"></path><path class="cls-2" d="M950.13,5.45h24.7v25.49c0,10.29-1.58,17.08-4.75,20.37-3.28,3.43-9.22,5.43-17.8,5.93-.9-.28-2.29-.39-4.15-.39v-11.66c3.96,0,6.89-.89,8.81-2.66,1.89-1.79,2.8-5.24,2.66-10.38h-9.48V5.45ZM903.02,58.85c3.16,10.91,4.71,21.69,4.71,32.23,0,16.57-2.65,33.89-7.97,51.94-10.04,34.18-26.54,60.9-49.5,80.21-15.09,12.77-32.33,19.16-51.78,19.16-6.79,0-12.93-.69-18.42-2.09-5.48-1.37-13.34-4.24-23.56-8.62-18.33,7.46-35.36,11.21-51.08,11.21-7.72,0-14.23-.92-19.53-2.73-3.25-1.07-6-2.93-8.23-5.52-2.26-2.64-3.36-5.3-3.36-7.95,0-5.07,2.78-9.1,8.37-12.05,5.61-3.01,13.14-4.52,22.62-4.52,14.9,0,31.99,4.99,51.22,15.03,12.58-8.54,24.36-19.31,35.43-32.29,6.91-8.18,12.51-15.32,16.82-21.56,4.32-6.23,15.44-23.15,33.31-50.75,13.92-21.26,32.21-42.88,54.82-64.85-5.14-11.98-11-21.16-17.61-27.6-13.59-13.47-31.87-20.19-54.84-20.19-30.22,0-55.83,10.24-76.77,30.71-10.4,10.13-18.54,21.32-24.41,33.65-5.4,11.27-8.11,22.53-8.11,33.8s3.55,20.44,10.61,27.44c6.67,6.67,15.9,10.04,27.65,10.04,16.17,0,31.72-6.28,46.62-18.82,20.26-17.13,34.26-41.34,42.02-72.61l3.17,1.03c-3.08,20.14-9.61,37.89-19.65,53.3-10.24,15.64-22.9,27.3-37.99,34.86-10.8,5.42-21.97,8.13-33.51,8.13-15.26,0-26.93-5.13-35.02-15.37-7.19-9.06-10.75-20.19-10.75-33.3,0-16.78,4.89-33.21,14.65-49.34,10.04-16.43,23.33-29.11,39.83-38.04,16.57-8.92,34.97-13.39,55.25-13.39,26.97,0,48.28,7.95,63.92,23.81,6.51,6.58,12.67,15.94,18.54,28.13,13.05-11.51,25.41-20.53,37.13-27.07l1.14,4.29c-10.83,6.79-22.73,16.68-35.74,29.69M763.06,228.25c11.73,5.86,23.58,8.78,35.58,8.78,18.21,0,34.97-6.63,50.21-19.83,21.39-18.42,36.94-43.6,46.59-75.58,5.39-17.94,8.11-34.58,8.11-49.87,0-9.67-1.35-19.5-4.03-29.51-7.65,8.98-14.53,18.1-20.72,27.35-6.19,9.26-15.05,23.79-26.58,43.59-11.66,20-21.4,34.97-29.26,44.91-7.85,9.94-17.54,19.65-29.08,29.06-6.33,5.09-16.62,12.14-30.82,21.09M750.34,228.09c-17.21-8.18-32.4-12.24-45.61-12.24-7.19,0-12.99,1.03-17.43,3.09-4.47,2.09-6.72,4.72-6.72,7.94s2.36,5.66,7.11,7.7c4.76,1.99,10.76,3.02,18.01,3.02,14.3-.02,29.2-3.2,44.64-9.51"></path><polygon class="cls-5" points="0 349.57 20.51 349.57 20.51 392.95 69.97 392.95 69.97 349.57 90.34 349.57 90.34 455.62 69.97 455.62 69.97 410.36 20.51 410.36 20.51 455.62 0 455.62 0 349.57"></polygon><path class="cls-5" d="M218.47,366.11c-6.58,0-11.64.47-15.2,1.44-3.57.96-5.93,2.79-7.12,5.5-1.38,3.05-2.29,7.79-2.71,14.16.18.83.28,1.9.28,3.24v25.15c0,8.69,1,14.69,2.97,17.95,1.64,2.47,4.03,4.01,7.11,4.6,3.08.6,7.84,1.01,14.25,1.2,6.21-.14,10.91-.6,14.09-1.43,3.19-.82,5.66-2.28,7.41-4.37,1.05-1.52,1.86-3.74,2.53-6.67.65-2.94.99-6.1.99-9.45v-31.96c0-6.69-1.18-11.5-3.53-14.39-2.34-2.48-6-4.03-11.05-4.68-3.08-.18-6.44-.29-10.04-.29M218.17,348.69c5.54,0,10.68.23,15.46.67,4.77.45,9.33,1.49,13.64,3.11,4.33,1.65,7.54,4.06,9.64,7.25,1.11,1.21,2.5,3.89,4.17,8.11,1.67,4.19,2.5,10.34,2.5,18.47v34.23c0,6.39-.6,11.34-1.81,14.85-1.2,3.5-2.92,6.84-5.12,10.04-2.45,3.36-5.91,5.86-10.36,7.49-4.47,1.62-9.04,2.64-13.79,3.01-4.7.35-10.38.53-17.01.53-8.09,0-14.91-.58-20.44-1.75-5.54-1.19-10.04-3.66-13.52-7.44-5.37-5.38-8.07-15.31-8.07-29.82v-29.03c0-6.14.39-11.58,1.21-16.41.78-4.77,2.41-8.96,4.89-12.56,2.32-3.21,5.59-5.63,9.85-7.2,4.24-1.58,8.64-2.58,13.18-2.97,4.55-.39,9.74-.58,15.56-.58"></path><path class="cls-5" d="M382.3,348.69c9.44,0,16.15.18,20.21.58,6.53.86,11.46,2.7,14.85,5.52,3.55,2.89,5.82,6.39,6.83,10.5,1.03,4.08,1.51,9.28,1.51,15.53h-20.51v-4.26c0-3.96-.69-6.71-2.11-8.2-1.65-1.88-5.89-2.83-12.72-2.83h-8.34c-8.09,0-13.33.96-15.67,2.83-1.27.94-2.18,2.22-2.73,3.77-.53,1.56-.84,3.89-.84,6.98.2,3.55.5,6.07.93,7.65.41,1.57,1.49,2.8,3.17,3.7,1.39.75,3.09,1.3,5.15,1.69,2.02.39,4.42.69,7.2.89,2.77.21,5.4.37,7.88.53,8.41.51,15.35,1.2,20.8,1.99,5.46.81,9.66,2.32,12.56,4.47,1.75,1.44,3.15,3.13,4.17,5.13,1.01,1.96,1.73,4.04,2.2,6.21.44,2.18.71,4.02.81,5.62.09,1.58.21,4.24.35,7.95,0,5.89-.83,11.13-2.5,15.67-1.67,4.54-4.1,8.02-7.28,10.36-4.95,3.69-15.11,5.52-30.4,5.52h-7.63c-6.79,0-12.63-.38-17.57-1.14-4.91-.74-9.1-2.59-12.54-5.54-2.55-2.18-4.38-4.66-5.53-7.46-1.19-2.81-1.88-5.7-2.15-8.7-.26-2.96-.4-6.86-.4-11.65h20.28c0,1.2-.09,2.2-.28,2.96.16,3.25.44,5.75.86,7.44.39,1.67,1.2,3.05,2.39,4.15,1.36,1.24,3.17,2.11,5.42,2.52,2.27.41,5.45.71,9.58.88,1.97,0,3.43.1,4.38.31,5.17-.23,9.09-.5,11.66-.84,2.62-.32,4.79-.99,6.56-1.99,3.12-1.92,4.68-6.37,4.68-13.3,0-4.92-.99-8.39-2.96-10.52-.75-.68-1.67-1.23-2.78-1.65-1.14-.41-2.28-.71-3.41-.89-1.14-.16-2.57-.3-4.31-.39-1.76-.09-3.73-.21-5.91-.32-3.78-.16-7.33-.32-10.66-.48-3.34-.14-6.54-.41-9.55-.8-3.01-.37-6-1.01-8.96-1.95-2.97-.94-5.45-2.18-7.42-3.68-5.57-4.1-8.53-11.82-8.9-23.23,0-11.88,2.68-20.15,8.07-24.91,5.46-4.4,16.03-6.63,31.58-6.63"></path><path class="cls-5" d="M528.93,421.42v34.2h-20.37v-106.04h46.38c8.32,0,15.43.78,21.36,2.34,5.93,1.54,10.29,5.02,13.09,10.4,2.58,5.89,3.85,13.6,3.85,23.17,0,13.07-2.22,22.27-6.67,27.57-2.15,2.72-5.77,4.76-10.84,6.19-5.1,1.44-10.36,2.18-15.86,2.18h-30.94ZM528.93,404.01h25.75c7.5,0,12.28-.94,14.25-2.82,1.87-1.53,3.01-3.23,3.38-5.06.37-1.81.66-5.09.86-9.81,0-6.69-.77-11.4-2.26-14.13-1.15-1.9-2.92-3.25-5.3-4.03-2.39-.8-5.84-1.19-10.4-1.19h-26.31v37.03h.02Z"></path><rect class="cls-5" x="675.02" y="349.58" width="20.49" height="106.05"></rect><polygon class="cls-5" points="804.25 455.62 804.25 366.98 773.29 366.98 773.29 349.57 855.83 349.57 855.83 366.98 824.62 366.98 824.62 455.62 804.25 455.62"></polygon><path class="cls-5" d="M956.09,420.27h36.62l-18.24-55.31h-.14l-18.24,55.31ZM959.06,349.57h29.82l36.2,106.05h-20.79l-6.78-19.93h-45.95l-6.79,19.93h-21.07l24.31-73.54,11.04-32.52Z"></path><polygon class="cls-5" points="1101.77 349.57 1122.28 349.57 1122.28 438.19 1172.06 438.19 1172.06 455.62 1101.77 455.62 1101.77 349.57"></polygon><polygon class="cls-5" points=".42 101.09 45.64 101.09 106.57 219.7 107.3 219.7 105.03 101.09 132.47 101.09 132.47 242.96 86.89 242.96 26.7 124.35 25.59 124.35 27.14 183.17 27.86 242.96 .42 242.96 .42 101.09"></polygon><path class="cls-5" d="M212.08,123.22c-8.8,0-15.57.63-20.33,1.92-4.75,1.26-7.95,3.73-9.52,7.35-1.86,4.1-3.06,10.4-3.62,18.95.25,1.12.37,2.55.37,4.36v33.66c0,11.63,1.33,19.65,3.96,24.02,2.2,3.27,5.4,5.36,9.53,6.14,4.13.82,10.47,1.35,19.07,1.6,8.32-.18,14.6-.81,18.84-1.92,4.29-1.06,7.56-3.03,9.94-5.84,1.39-2.04,2.48-5,3.39-8.92.88-3.94,1.31-8.16,1.31-12.63v-42.76c0-8.94-1.57-15.39-4.7-19.25-3.13-3.32-8.04-5.4-14.78-6.28-4.17-.27-8.64-.4-13.47-.4M211.68,99.93c7.42,0,14.28.32,20.67.9,6.39.61,12.49,1.99,18.26,4.17,5.8,2.21,10.08,5.43,12.88,9.71,1.49,1.6,3.34,5.2,5.59,10.84,2.25,5.61,3.34,13.84,3.34,24.74v45.77c0,8.55-.82,15.15-2.44,19.86-1.59,4.66-3.91,9.13-6.83,13.44-3.28,4.52-7.9,7.86-13.88,10.04-5.98,2.18-12.1,3.53-18.45,4.03-6.3.46-13.9.71-22.76.71-10.82,0-19.92-.78-27.32-2.36-7.42-1.58-13.45-4.89-18.06-9.97-7.18-7.18-10.77-20.49-10.77-39.9v-38.84c0-8.23.53-15.51,1.6-21.95,1.04-6.39,3.21-12.01,6.53-16.8,3.08-4.31,7.47-7.54,13.18-9.64,5.68-2.11,11.57-3.42,17.66-3.96,6.07-.53,13-.78,20.79-.78"></path><path class="cls-5" d="M357.04,124.37h-38.4v48.37h39.19c4.74,0,8.39-.37,10.95-1.16,2.55-.76,4.82-2.18,6.83-4.29,2.64-3.4,3.96-9.97,3.96-19.65,0-8.93-1.12-15.03-3.25-18.19-1.75-2.13-4.17-3.53-7.22-4.17-3.04-.58-7.07-.91-12.05-.91M361.12,101.09c18.36,0,30.78,3.59,37.26,10.75,5.7,6.39,8.55,16.87,8.55,31.41,0,15.75-2.09,26.09-6.28,31.05-3.73,4.56-9.99,7.66-18.86,9.26v.55c8.3.8,14.6,3.62,18.86,8.49,3.41,5.44,5.1,13.48,5.1,24.07v26.26h-27.38v-21.36c0-4.92-.25-9.02-.71-12.26-.46-3.25-1.67-5.96-3.62-8.13-1.92-2.18-4.22-3.57-6.83-4.19-2.64-.63-6.14-.96-10.57-.96h-38.04v46.91h-27.23V101.09h69.73Z"></path><polygon class="cls-5" points="458.38 242.97 458.38 124.38 416.97 124.38 416.97 101.09 527.4 101.09 527.4 124.38 485.63 124.38 485.63 242.97 458.38 242.97"></polygon><polygon class="cls-5" points="538.18 242.97 538.18 101.09 635.6 101.09 635.6 124.38 565.43 124.38 565.43 159.94 632.01 159.94 632.01 182.06 565.43 182.06 565.43 219.66 635.98 219.66 635.98 242.97 538.18 242.97"></polygon><path class="cls-5" d="M978.66,123.22c-8.8,0-15.58.63-20.31,1.92-4.76,1.26-7.96,3.73-9.53,7.35-1.86,4.1-3.05,10.4-3.62,18.95.25,1.12.38,2.55.38,4.36v33.66c0,11.63,1.31,19.65,3.95,24.02,2.2,3.27,5.4,5.36,9.53,6.14,4.11.82,10.47,1.35,19.07,1.6,8.32-.18,14.61-.81,18.85-1.92,4.27-1.06,7.57-3.03,9.93-5.84,1.39-2.04,2.49-5,3.39-8.92.89-3.94,1.31-8.16,1.31-12.63v-42.76c0-8.94-1.57-15.39-4.7-19.25-3.13-3.32-8.04-5.4-14.78-6.28-4.15-.27-8.62-.4-13.47-.4M978.29,99.93c7.42,0,14.28.32,20.67.9,6.39.61,12.5,1.99,18.26,4.17,5.8,2.21,10.08,5.43,12.89,9.71,1.47,1.6,3.33,5.2,5.58,10.84,2.25,5.61,3.34,13.84,3.34,24.74v45.77c0,8.55-.82,15.15-2.43,19.86-1.6,4.66-3.93,9.13-6.84,13.44-3.29,4.52-7.9,7.86-13.87,10.04-5.99,2.18-12.11,3.53-18.45,4.03-6.3.46-13.92.71-22.77.71-10.82,0-19.92-.78-27.32-2.36-7.41-1.58-13.44-4.89-18.06-9.97-7.18-7.18-10.77-20.49-10.77-39.9v-38.84c0-8.23.53-15.51,1.6-21.95,1.04-6.39,3.23-12.01,6.53-16.8,3.09-4.31,7.47-7.54,13.19-9.64,5.67-2.11,11.56-3.42,17.65-3.96,6.07-.53,13.01-.78,20.79-.78"></path><path class="cls-5" d="M1123.62,124.37h-38.4v48.37h39.19c4.74,0,8.4-.37,10.95-1.16,2.55-.76,4.82-2.18,6.83-4.29,2.64-3.4,3.96-9.97,3.96-19.65,0-8.93-1.12-15.03-3.24-18.19-1.77-2.13-4.18-3.53-7.24-4.17-3.01-.58-7.06-.91-12.05-.91M1127.72,101.09c18.36,0,30.78,3.59,37.26,10.75,5.7,6.39,8.55,16.87,8.55,31.41,0,15.75-2.09,26.09-6.28,31.05-3.72,4.56-9.99,7.66-18.86,9.26v.55c8.3.8,14.6,3.62,18.86,8.49,3.41,5.44,5.1,13.48,5.1,24.07v26.26h-27.37v-21.36c0-4.92-.27-9.02-.73-12.26-.46-3.25-1.67-5.96-3.61-8.13-1.94-2.18-4.23-3.57-6.84-4.19-2.64-.63-6.14-.96-10.57-.96h-38.04v46.91h-27.22V101.09h69.72Z"></path></g></svg> 