<?xml version="1.0" encoding="UTF-8"?> <svg xmlns="http://www.w3.org/2000/svg" id="Camada_1" data-name="Camada 1" viewBox="0 0 1190.55 409.56"><defs><style> .cls-1 { fill: #c19f77; } .cls-1, .cls-2 { stroke-width: 0px; } .cls-2 { fill: #cda176; } </style></defs><rect class="cls-2" x="8.5" y="285.66" width="1173.39" height="3.85"></rect><g><path class="cls-2" d="M248.49,220.81l-7.68-.02-46.23-122.1-46.23,122.1-7.68.02,53.91-140.44,53.91,140.44Z"></path><path class="cls-2" d="M415.39,152.79c0,19.5-6.94,36.18-20.78,50.03-13.87,13.85-30.53,20.78-50.03,20.78s-36.38-6.94-50.23-20.78c-13.87-13.85-20.78-30.53-20.78-50.03s6.94-36.36,20.78-50.23c13.85-13.85,30.61-20.78,50.23-20.78s36.16,6.94,50.03,20.78c13.85,13.85,20.78,30.58,20.78,50.23ZM408.62,152.79c0-17.72-6.29-32.85-18.83-45.42-12.56-12.56-27.64-18.83-45.22-18.83s-32.85,6.27-45.42,18.83c-12.56,12.56-18.83,27.69-18.83,45.42s6.29,32.66,18.83,45.22c12.56,12.56,27.69,18.83,45.42,18.83s32.66-6.27,45.22-18.83c12.56-12.56,18.83-27.64,18.83-45.22Z"></path><path class="cls-2" d="M612.92,84.55l-53.91,140.44-53.91-140.44,7.43-.03,46.48,122.15,46.45-122.15,7.45.03Z"></path><path class="cls-2" d="M656.68,84.54h-6.76v136.27h6.76V84.54Z"></path><path class="cls-2" d="M773.65,223.61c-19.62,0-36.38-6.94-50.23-20.78-13.87-13.85-20.78-30.53-20.78-50.03s6.94-36.36,20.78-50.23c13.85-13.85,30.61-20.78,50.23-20.78v6.57c-17.72,0-32.85,6.29-45.42,18.91-12.56,12.59-18.83,27.79-18.83,45.56s6.29,32.93,18.83,45.47c12.56,12.54,27.69,18.81,45.42,18.81v6.52Z"></path><path class="cls-2" d="M865.96,220.81h-52.33V84.54h52.33v6.76h-45.56v57.91h45.56v6.76h-45.56v58.08h45.56v6.76Z"></path><path class="cls-2" d="M983.13,224.59l-64.45-116.77v113h-6.76V81.16l64.44,117.19v-113.81h6.76v140.05Z"></path><path class="cls-2" d="M1092.74,91.31h-33.41v129.51h-6.76V91.31h-32.44v-6.76h72.62v6.76Z"></path><path class="cls-2" d="M1182.05,220.81h-52.3V84.54h52.3v6.76h-45.53v57.91h45.53v6.76h-45.53v58.08h45.53v6.76Z"></path><path class="cls-2" d="M653.33,20.22l4.84,14.86h15.62l-12.64,9.21,4.84,14.86-12.66-9.21-12.64,9.21,4.81-14.86-12.61-9.21h15.62l4.81-14.86Z"></path><path class="cls-2" d="M212.84,62.75h-35.99v6.76h35.99v-6.76Z"></path><path class="cls-1" d="M14.06,220.8l-1.38-7.8c41.21-7.28,51.92-52.34,63.26-100.06,2.84-11.95,5.78-24.3,9.21-35.92.31-1.04.62-2.07.94-3.1,18.64-60.43,50.22-53.64,51.55-53.31l-1.8,7.72c-1.04-.22-25.89-4.88-42.18,47.93-.31,1-.61,2-.91,3.01-3.38,11.42-6.29,23.67-9.1,35.51-11.43,48.1-23.25,97.85-69.59,106.03Z"></path></g><g><path class="cls-2" d="M270.46,359.73h0c1.53-2.34,2.27-6.11,2.27-11.54,0-6.21-1.41-10.72-4.18-13.4-2.79-2.7-7.26-4.01-13.67-4.01h-27.72v58h10.17v-21.84h18.34c4.3,0,6.13,2.21,6.13,7.4v14.45h10.17v-15.83c0-4.91-1.49-8.43-4.44-10.49,1.23-.74,2.21-1.65,2.92-2.73ZM262.84,349.69c0,3.2-.62,5.41-1.79,6.39-.73.61-2.77,1.64-8.17,1.64h-15.54v-17.71h17.63c4.7,0,6.1,1.04,6.48,1.49.42.49,1.39,2.27,1.39,8.19Z"></path><polygon class="cls-2" points="322.7 388.79 361.43 388.79 361.43 379.56 332.87 379.56 332.87 363.51 360.24 363.51 360.24 354.28 332.87 354.28 332.87 340.01 361.43 340.01 361.43 330.78 322.7 330.78 322.7 388.79"></polygon><path class="cls-2" d="M437.41,330.78h-27.01v58h28.55c8.01,0,13.51-2.3,16.33-6.85,2.67-4.29,3.96-12.3,3.96-24.5,0-10.19-1.49-16.99-4.56-20.8-3.13-3.88-8.94-5.85-17.27-5.85ZM449.35,360.48c0,11.08-1.51,14.82-2.41,16.06-1.43,1.98-5.18,3.03-10.83,3.03h-15.54v-39.56h16.76c5.28,0,8.7,1.02,9.9,2.94.79,1.27,2.12,5.25,2.12,17.53Z"></path><polygon class="cls-2" points="509.27 388.79 548 388.79 548 379.56 519.45 379.56 519.45 363.51 546.82 363.51 546.82 354.28 519.45 354.28 519.45 340.01 548 340.01 548 330.78 509.27 330.78 509.27 388.79"></polygon><path class="cls-2" d="M725.1,330.78h-27.01v58h28.55c8.01,0,13.51-2.3,16.34-6.85,2.66-4.29,3.96-12.31,3.96-24.5,0-10.19-1.49-16.99-4.56-20.8-3.13-3.88-8.94-5.85-17.27-5.85ZM708.26,340.01h16.76c5.27,0,8.7,1.02,9.89,2.94.79,1.27,2.12,5.24,2.12,17.52,0,11.08-1.51,14.82-2.41,16.06-1.43,1.98-5.18,3.03-10.83,3.03h-15.54v-39.56Z"></path><path class="cls-2" d="M758.66,342.14h2.55c-.12.52-.48.72-1.42.77l-1.92.11v6.86l1.88.15c.76.07,1.32.09,1.67.09,2.77,0,7.42-1.23,7.42-9.43v-9.9h-10.17v11.35Z"></path><path class="cls-2" d="M958.04,362.46c1.23-.74,2.2-1.65,2.92-2.74,1.53-2.33,2.27-6.11,2.27-11.54,0-6.21-1.4-10.72-4.18-13.4-2.79-2.7-7.26-4.01-13.67-4.01h-27.72v58h10.17v-21.84h18.34c4.3,0,6.13,2.21,6.13,7.4v14.45h10.17v-15.83c0-4.91-1.49-8.43-4.44-10.49ZM953.33,349.69c0,3.2-.62,5.41-1.79,6.4-.73.61-2.76,1.63-8.17,1.63h-15.54v-17.71h17.63c4.7,0,6.1,1.04,6.48,1.49.42.49,1.39,2.27,1.39,8.19Z"></path><path class="cls-2" d="M842.64,330.23c-9.4,0-15.73,1.44-19.36,4.39-3.71,3.01-5.6,8.47-5.6,16.23l-.08,8.91c0,13.03,1.38,21,4.21,24.38,2.92,3.5,9.74,5.2,20.83,5.2s17.98-1.72,20.86-5.26c2.82-3.45,4.13-11.41,4.13-25.03,0-12.52-1.41-20.26-4.32-23.65-3-3.48-9.76-5.18-20.67-5.18ZM857.74,359.77c0,14.87-1.34,17.77-1.76,18.31-.26.34-2.12,2.04-13.38,2.04s-13.08-1.7-13.35-2.04c-.41-.54-1.75-3.45-1.75-18.31s1.34-17.73,1.76-18.27c.26-.34,2.13-2.04,13.34-2.04,9.06,0,11.94,1.23,12.86,1.96.84.67,2.24,2.82,2.24,9.75l.04,8.6Z"></path></g></svg> 